<svg width="142" height="157" viewBox="0 0 142 157" fill="none" xmlns="http://www.w3.org/2000/svg">
<path opacity="0.75" d="M141.746 70.623C141.746 31.6234 110.123 0 71.123 0C32.1234 0 0.5 31.6234 0.5 70.623C0.5 101.383 20.1175 127.435 47.582 137.323V156.94H63.276V140.775C65.8655 141.246 68.455 141.246 71.123 141.246C73.791 141.246 76.3805 141.246 78.97 140.775V156.94H94.664V137.323C122.129 127.435 141.746 101.383 141.746 70.623ZM71.123 125.552C40.8336 125.552 16.194 100.912 16.194 70.623C16.194 40.3336 40.8336 15.694 71.123 15.694C101.412 15.694 126.052 40.3336 126.052 70.623C126.052 100.912 101.412 125.552 71.123 125.552ZM39.735 39.235H102.511V54.929H39.735V39.235ZM77.0083 62.776L53.4673 86.317L63.276 96.1258L53.4673 105.935L65.2378 117.705L88.7788 94.164L78.97 84.3553L88.7788 74.5465L77.0083 62.776Z" fill="white"/>
</svg>
