<?xml version="1.0" encoding="iso-8859-1"?>
<!-- Uploaded to: SVG Repo, www.svgrepo.com, Generator: SVG Repo Mixer Tools -->
<!DOCTYPE svg PUBLIC "-//W3C//DTD SVG 1.1//EN" "http://www.w3.org/Graphics/SVG/1.1/DTD/svg11.dtd">
<svg fill="#ffffff" version="1.1" id="Capa_1" xmlns="http://www.w3.org/2000/svg" xmlns:xlink="http://www.w3.org/1999/xlink" 
	 width="800px" height="800px" viewBox="0 0 402.396 402.396"
	 xml:space="preserve">
<g>
	<path d="M291.397,59.57h-36.08V12.026C255.317,5.385,249.933,0,243.29,0c-6.641,0-12.027,5.386-12.027,12.026V59.57H171.13V12.026
		C171.13,5.385,165.743,0,159.103,0c-6.643,0-12.028,5.386-12.028,12.026V59.57h-36.079c-6.643,0-12.028,5.386-12.028,12.026v67.593
		c0,52.295,39.487,95.476,90.203,101.455V390.37c0,6.643,5.386,12.026,12.026,12.026c6.641,0,12.027-5.386,12.027-12.026V240.645
		c50.717-5.979,90.205-49.16,90.205-101.455V71.596C303.427,64.956,298.04,59.57,291.397,59.57z M279.37,139.189
		c0,43.104-35.07,78.177-78.174,78.177s-78.175-35.073-78.175-78.177V83.625H279.37V139.189z"/>
</g>
</svg>