<svg width="115" height="157" viewBox="0 0 115 157" fill="none" xmlns="http://www.w3.org/2000/svg">
<path opacity="0.75" d="M57.7068 0L50.5559 8.00895C50.5559 8.00895 38.3518 21.8339 26.0524 39.7587C13.7529 57.6835 0.5 79.136 0.5 99.7305C0.5 131.325 26.1123 156.937 57.7068 156.937C89.3012 156.937 114.914 131.325 114.914 99.7305C114.914 79.136 101.661 57.6835 89.3612 39.7587C77.0617 21.8339 64.8576 8.00895 64.8576 8.00895L57.7068 0ZM57.7068 29.8429C61.9019 34.8008 65.7157 38.9006 73.7247 50.5326C85.2614 67.3133 95.8446 88.6705 95.8446 99.7305C95.8446 120.897 78.8733 137.868 57.7068 137.868C36.5403 137.868 19.5689 120.897 19.5689 99.7305C19.5689 88.6705 30.1522 67.3133 41.6889 50.5326C49.6978 38.9006 53.5116 34.8008 57.7068 29.8429Z" fill="white"/>
</svg>
