<svg width="174" height="174" viewBox="0 0 174 174" fill="none" xmlns="http://www.w3.org/2000/svg">
<path d="M21.75 29V116H152.25V29H21.75ZM21.75 14.5H152.25C160.225 14.5 166.75 20.9525 166.75 29V116C166.75 119.842 165.227 123.54 162.473 126.222C159.79 128.978 156.092 130.5 152.25 130.5H101.5V145H116V159.5H58V145H72.5V130.5H21.75C17.9075 130.5 14.21 128.978 11.5275 126.222C8.7725 123.54 7.25 119.842 7.25 116V29C7.25 20.9525 13.7025 14.5 21.75 14.5ZM78.59 64.7425C80.8375 62.5675 83.8825 61.2625 87 61.2625C90.1175 61.335 93.1625 62.5675 95.41 64.815C97.585 66.99 98.89 70.035 98.89 73.1525C98.89 76.3425 97.585 79.315 95.41 81.5625C93.1625 83.81 90.1175 85.0425 87 85.0425C83.8825 85.0425 80.8375 83.7375 78.59 81.5625C76.415 79.315 75.11 76.3425 75.11 73.1525C75.11 70.035 76.415 66.99 78.59 64.7425ZM73.0075 87C76.705 90.8425 81.78 92.945 87 92.945C92.22 92.945 97.295 90.8425 100.993 87C104.69 83.375 106.792 78.3725 106.792 73.1525C106.792 67.9325 104.69 62.8575 100.993 59.16C97.295 55.4625 92.22 53.36 87 53.36C81.78 53.36 76.705 55.4625 73.0075 59.16C69.31 62.8575 67.2075 67.9325 67.2075 73.1525C67.2075 78.3725 69.31 83.375 73.0075 87ZM43.5 73.1525C50.315 55.825 67.2075 43.5 87 43.5C106.793 43.5 123.685 55.825 130.5 73.1525C123.685 90.625 106.793 102.805 87 102.805C67.2075 102.805 50.315 90.625 43.5 73.1525Z" fill="#ffffff"/>
</svg>
