<svg width="174" height="174" viewBox="0 0 174 174" fill="none" xmlns="http://www.w3.org/2000/svg">
<path d="M87.0001 21.75C77.7926 21.75 69.6001 27.55 66.5551 36.25H21.7501V50.75H35.8876L14.5001 101.5C11.0926 116 21.7501 123.25 39.8751 123.25C58.0001 123.25 69.3101 116 65.2501 101.5L43.8626 50.75H66.4826C68.8751 56.9125 73.5876 61.625 79.7501 64.0175V145H14.5001V159.5H159.5V145H94.2501V63.945C100.413 61.625 105.125 56.9125 107.445 50.75H130.138L108.75 101.5C105.343 116 116 123.25 134.125 123.25C152.25 123.25 163.56 116 159.5 101.5L138.113 50.75H152.25V36.25H107.518C104.4 27.55 96.2076 21.75 87.0001 21.75ZM87.0001 36.25C88.9229 36.25 90.7669 37.0138 92.1266 38.3735C93.4862 39.7331 94.2501 41.5772 94.2501 43.5C94.2501 45.4228 93.4862 47.2669 92.1266 48.6265C90.7669 49.9862 88.9229 50.75 87.0001 50.75C85.0772 50.75 83.2332 49.9862 81.8735 48.6265C80.5139 47.2669 79.7501 45.4228 79.7501 43.5C79.7501 41.5772 80.5139 39.7331 81.8735 38.3735C83.2332 37.0138 85.0772 36.25 87.0001 36.25ZM39.8751 74.3125L50.7501 101.5H29.0001L39.8751 74.3125ZM134.125 74.3125L145 101.5H123.25L134.125 74.3125Z" fill="#251E46"/>
</svg>
