<svg width="146" height="146" viewBox="0 0 146 146" fill="none" xmlns="http://www.w3.org/2000/svg">
<path d="M73 0.5C63.4792 0.5 54.0516 2.37527 45.2554 6.01873C36.4593 9.6622 28.467 15.0025 21.7348 21.7348C8.13837 35.3311 0.5 53.7718 0.5 73C0.5 92.2282 8.13837 110.669 21.7348 124.265C28.467 130.997 36.4593 136.338 45.2554 139.981C54.0516 143.625 63.4792 145.5 73 145.5C92.2282 145.5 110.669 137.862 124.265 124.265C137.862 110.669 145.5 92.2282 145.5 73C145.5 64.59 143.977 56.2525 141.077 48.4225L129.478 60.0225C130.493 64.3 131 68.65 131 73C131 88.3826 124.889 103.135 114.012 114.012C103.135 124.889 88.3826 131 73 131C57.6174 131 42.8649 124.889 31.9878 114.012C21.1107 103.135 15 88.3826 15 73C15 57.6174 21.1107 42.8649 31.9878 31.9878C42.8649 21.1107 57.6174 15 73 15C77.35 15 81.7 15.5075 85.9775 16.5225L97.65 4.85C89.7475 2.0225 81.41 0.5 73 0.5ZM123.75 0.5L94.75 29.5V40.375L76.2625 58.8625C75.175 58.5 74.0875 58.5 73 58.5C69.1544 58.5 65.4662 60.0277 62.747 62.747C60.0277 65.4662 58.5 69.1544 58.5 73C58.5 76.8456 60.0277 80.5338 62.747 83.253C65.4662 85.9723 69.1544 87.5 73 87.5C76.8456 87.5 80.5338 85.9723 83.253 83.253C85.9723 80.5338 87.5 76.8456 87.5 73C87.5 71.9125 87.5 70.825 87.1375 69.7375L105.625 51.25H116.5L145.5 22.25H123.75V0.5ZM73 29.5C61.4631 29.5 50.3987 34.083 42.2409 42.2409C34.083 50.3987 29.5 61.4631 29.5 73C29.5 84.5369 34.083 95.6013 42.2409 103.759C50.3987 111.917 61.4631 116.5 73 116.5C84.5369 116.5 95.6013 111.917 103.759 103.759C111.917 95.6013 116.5 84.5369 116.5 73H102C102 80.6913 98.9447 88.0675 93.5061 93.5061C88.0675 98.9447 80.6913 102 73 102C65.3087 102 57.9325 98.9447 52.4939 93.5061C47.0553 88.0675 44 80.6913 44 73C44 65.3087 47.0553 57.9325 52.4939 52.4939C57.9325 47.0553 65.3087 44 73 44V29.5Z" fill="#ffffff"/>
</svg>
