<svg width="17" height="19" viewBox="0 0 17 19" fill="none" xmlns="http://www.w3.org/2000/svg">
<path d="M13.561 13.2224C12.8739 13.2224 12.2592 13.4937 11.7891 13.9186L5.34304 10.1667C5.38825 9.95876 5.42441 9.75082 5.42441 9.53385C5.42441 9.31687 5.38825 9.10893 5.34304 8.901L11.7167 5.18528C12.2049 5.63731 12.8468 5.91757 13.561 5.91757C15.0618 5.91757 16.2732 4.70612 16.2732 3.20537C16.2732 1.70462 15.0618 0.493164 13.561 0.493164C12.0603 0.493164 10.8488 1.70462 10.8488 3.20537C10.8488 3.42235 10.885 3.63028 10.9302 3.83822L4.5565 7.55394C4.06831 7.1019 3.42642 6.82164 2.7122 6.82164C1.21145 6.82164 0 8.03309 0 9.53385C0 11.0346 1.21145 12.2461 2.7122 12.2461C3.42642 12.2461 4.06831 11.9658 4.5565 11.5138L10.9935 15.2656C10.9483 15.4555 10.9211 15.6544 10.9211 15.8623C10.9211 17.3179 12.1055 18.4932 13.561 18.4932C15.0166 18.4932 16.2009 17.3179 16.2009 15.8623C16.2009 14.4068 15.0166 13.2224 13.561 13.2224ZM13.561 2.3013C14.0583 2.3013 14.4651 2.70813 14.4651 3.20537C14.4651 3.70261 14.0583 4.10944 13.561 4.10944C13.0638 4.10944 12.657 3.70261 12.657 3.20537C12.657 2.70813 13.0638 2.3013 13.561 2.3013ZM2.7122 10.4379C2.21497 10.4379 1.80814 10.0311 1.80814 9.53385C1.80814 9.03661 2.21497 8.62978 2.7122 8.62978C3.20944 8.62978 3.61627 9.03661 3.61627 9.53385C3.61627 10.0311 3.20944 10.4379 2.7122 10.4379ZM13.561 16.7664C13.0638 16.7664 12.657 16.3596 12.657 15.8623C12.657 15.3651 13.0638 14.9583 13.561 14.9583C14.0583 14.9583 14.4651 15.3651 14.4651 15.8623C14.4651 16.3596 14.0583 16.7664 13.561 16.7664Z" fill="#FAFAFA"/>
</svg>
