<?xml version="1.0" standalone="no"?>
<!DOCTYPE svg PUBLIC "-//W3C//DTD SVG 1.1//EN" "http://www.w3.org/Graphics/SVG/1.1/DTD/svg11.dtd">
<svg xmlns="http://www.w3.org/2000/svg" viewBox="0 0 415.23 225.4" width="415.2300109863281" height="225.39999389648438"><defs><style>.cls-1{fill:#FFFFFF;}.cls-2{fill:#FFFFFF;}</style></defs><g id="Camada_2" data-name="Camada 2"><g id="Camada_3" data-name="Camada 3"><path class="cls-1" d="M25.81,70.33A31.12,31.12,0,0,0,28,81.88a29.62,29.62,0,0,0,5.91,9.42,28.78,28.78,0,0,0,8.81,6.41,24.59,24.59,0,0,0,10.7,2.4v21a50.91,50.91,0,0,1-20.2-4,52.68,52.68,0,0,1-16.51-11A51.13,51.13,0,0,1,1.51,69.48V0h24.3V70.33Z" transform="translate(-1.51)"/><path class="cls-1" d="M80.58,0V69.05q0,.95-.09.6c-.06-.23-.09-.17-.09.17a.36.36,0,0,0,.09.26.33.33,0,0,1,.09.25,30.9,30.9,0,0,1-5.84,18.26L91.53,103.9c.74-.81,1.45-1.64,2.14-2.51a53.05,53.05,0,0,0,8.21-14.71,49.27,49.27,0,0,0,3-17.2V0Z" transform="translate(-1.51)"/><rect class="cls-1" x="114.75" y="34.62" width="23.54" height="86.56"/><path class="cls-1" d="M202.47,58.17a33.32,33.32,0,0,0-6.23-13.51q-8.84-11.41-29.6-11.42a34.54,34.54,0,0,0-16.18,3.68l7.77,17.53a25.52,25.52,0,0,1,5.64-.61q6.39,0,9.86,1.91a11.36,11.36,0,0,1,5,5.29,21.5,21.5,0,0,1,1.82,7.81c.18,3,.26,6.05.26,9.29v43h23.55V78.25A89.63,89.63,0,0,0,202.47,58.17Z" transform="translate(-1.51)"/><path class="cls-1" d="M315.28,0V20.25H296.41a7.93,7.93,0,0,0-6.92,3.47q-2.43,3.47-2.43,9.52v87.94H264V68.73H251.57V49.51H264V32.2a31.36,31.36,0,0,1,2.51-12.47A32.21,32.21,0,0,1,283.77,2.51,32,32,0,0,1,296.41,0Z" transform="translate(-1.51)"/><polygon class="cls-1" points="297.57 49.51 307.14 68.73 313.77 68.73 313.77 49.51 297.57 49.51"/><path class="cls-1" d="M416.09,34.62l-.17.35q-3,8-5.72,15.49T405,64.57q-8.65,24.24-15.49,41.64t-14.63,28.3q-7.78,11.25-17.57,16.27t-24.5,5h-.34V132.26h.34q4.5,0,8.05-.35a24.78,24.78,0,0,0,6.49-1.47,20.88,20.88,0,0,0,5.46-3.11,23.89,23.89,0,0,0,4.76-5.29,55.89,55.89,0,0,0,4.5-7.61q2.25-4.5,4.67-10.73t5.37-14.46q2.94-8.22,6.58-18.61,2.76-7.78,5.88-16.62t6.75-19.21v-.18Z" transform="translate(-1.51)"/><polygon class="cls-1" points="357.53 76.44 342.73 34.8 342.73 34.62 317.98 34.62 346.34 104.64 357.53 76.44"/><rect class="cls-1" x="215.38" width="23.02" height="20.25"/><rect class="cls-1" x="215.38" y="34.62" width="23.02" height="86.56"/></g><g id="Camada_10" data-name="Camada 10"><path class="cls-2" d="M7.9,184.1H24l-.37,1.7H9.52L7.16,197.6h12l-.37,1.71H6.87L4.07,213H18.66l-.37,1.7H1.79Z" transform="translate(-1.51)"/><path class="cls-2" d="M29,192.39h1.6l-.5,3.55h.19c2.71-2.35,5.23-4.11,8-4.11,3.8,0,5.3,2.21,5.3,5.45a11.92,11.92,0,0,1-.37,3l-2.87,14.38H38.41l2.85-14.12a13,13,0,0,0,.37-2.87c0-2.72-1.16-4.12-4-4.12-2,0-4.58,1.42-7.92,4.68l-3.29,16.43H24.55Z" transform="translate(-1.51)"/><path class="cls-2" d="M46.51,222.32l1.07-1.41a9.69,9.69,0,0,0,6.58,2.82c4.36,0,6.81-3.14,7.82-7.84l1.12-5.22c-2.53,2.45-5.2,4.07-8.28,4.07-3.81,0-6.44-2.77-6.44-7.91,0-8.25,5.91-15,11.81-15a6.41,6.41,0,0,1,5.74,3.63h.17l.86-3.07h1.6l-4.87,24.19c-1.14,5.47-4.44,8.82-9.63,8.82A11.52,11.52,0,0,1,46.51,222.32Zm16.87-13.79,2.29-11c-1.69-2.88-3.42-4-5.5-4-5,0-9.85,6.58-9.85,13,0,4.38,1.84,6.56,4.88,6.56C57.67,213.05,60.83,211.33,63.38,208.53Z" transform="translate(-1.51)"/><path class="cls-2" d="M84,191.83c4.83,0,6.7,3.32,6.7,7.9a13.05,13.05,0,0,1-.63,3.89H74.57c-1.2,7,2.22,10,6.66,10a10,10,0,0,0,5.57-2.15l.84,1.38a11.63,11.63,0,0,1-6.7,2.41c-5.16,0-8.48-3.22-8.48-9.18C72.46,197.59,78.32,191.83,84,191.83Zm4.66,10.26a12.53,12.53,0,0,0,.27-2.65c0-3-1.32-6-5.1-6-3.94,0-7.8,3.56-9,8.61Z" transform="translate(-1.51)"/><path class="cls-2" d="M98.68,192.39h1.61l-.51,3.55H100c2.72-2.35,5.23-4.11,8-4.11,3.8,0,5.31,2.21,5.31,5.45a12.4,12.4,0,0,1-.37,3L110,214.66h-1.91l2.86-14.12a13,13,0,0,0,.37-2.87c0-2.72-1.16-4.12-4-4.12-2,0-4.59,1.42-7.93,4.68l-3.29,16.43H94.22Z" transform="translate(-1.51)"/><path class="cls-2" d="M124.53,181.29h1.91L124,193.65l-.61,2.33h.18c2.86-2.42,5.36-4.15,8-4.15,3.81,0,5.31,2.21,5.31,5.45a11.92,11.92,0,0,1-.37,3l-2.88,14.38h-1.91l2.86-14.12a13,13,0,0,0,.37-2.87c0-2.72-1.16-4.12-3.95-4.12-2,0-4.58,1.42-7.92,4.68l-3.3,16.43h-1.91Z" transform="translate(-1.51)"/><path class="cls-2" d="M141.42,207.19c0-8.57,5.94-15.36,12.09-15.36a6.38,6.38,0,0,1,5.75,3.63h.17l.86-3.07h1.59l-4.47,22.27H155.8l.51-3.54h-.18c-2.29,2.38-5.15,4.1-8.21,4.1C144,215.22,141.42,212.41,141.42,207.19Zm15.26,1.53L159,197.54c-1.65-2.88-3.43-4-5.52-4-5.27,0-10.12,6.63-10.12,13.32,0,4.5,1.92,6.69,5,6.69C151.21,213.53,154.05,211.81,156.68,208.72Z" transform="translate(-1.51)"/><path class="cls-2" d="M170.15,192.39h1.61l-.69,4.21h.19c1.84-2.63,4.12-4.77,7-4.77a5.64,5.64,0,0,1,2,.38l-.74,1.81a3.71,3.71,0,0,0-1.75-.37c-2.36,0-5.2,2.29-7.22,6.27l-2.92,14.74h-1.91Z" transform="translate(-1.51)"/><path class="cls-2" d="M184.86,192.39h1.92l-4.48,22.27h-1.91Zm.61-6.9a2,2,0,0,1,1.95-2.09A1.52,1.52,0,0,1,189,185a2,2,0,0,1-1.94,2A1.49,1.49,0,0,1,185.47,185.49Z" transform="translate(-1.51)"/><path class="cls-2" d="M190.77,207.19c0-8.57,5.94-15.36,12.09-15.36a6.36,6.36,0,0,1,5.74,3.63h.18l.85-3.07h1.6l-4.47,22.27h-1.61l.5-3.54h-.17c-2.29,2.38-5.15,4.1-8.21,4.1C193.35,215.22,190.77,212.41,190.77,207.19ZM206,208.72l2.32-11.18c-1.64-2.88-3.42-4-5.51-4-5.28,0-10.12,6.63-10.12,13.32,0,4.5,1.92,6.69,5,6.69C200.56,213.53,203.4,211.81,206,208.72Z" transform="translate(-1.51)"/><path class="cls-2" d="M222.66,208.36c0-10.48,17.1-11.91,17.1-20.22,0-1.56-.76-3-2.65-3-3.12,0-5.4,3-5.4,7.09,0,5.83,3.47,13,7.61,17.32a17.51,17.51,0,0,0,5.39,4.12l-.87,1.58a16.84,16.84,0,0,1-5.91-4.42c-4.29-4.65-8-12.24-8-18.42,0-5.29,3.5-8.84,7.31-8.84a4,4,0,0,1,4.26,4.32c0,9.41-16.87,11.23-16.87,20.17a5.28,5.28,0,0,0,5.49,5.55c2.79,0,5.66-1.67,8-4a35.44,35.44,0,0,0,7.29-10.93h1.83a42.15,42.15,0,0,1-8,12c-2.75,2.75-6,4.52-9.61,4.52C225.62,215.22,222.66,212.57,222.66,208.36Z" transform="translate(-1.51)"/><path class="cls-2" d="M257.1,210.05l1.54-1.09a9.58,9.58,0,0,0,8.48,4.55c4.38,0,7.78-2.77,7.78-7,0-2.64-1.55-4.37-3.93-5.75L267,198.39c-2.53-1.51-4.79-3.65-4.79-6.95,0-4.21,3.59-7.9,8.79-7.9a10.2,10.2,0,0,1,8.29,4.14l-1.38,1.19a9,9,0,0,0-7.18-3.61,6.24,6.24,0,0,0-6.5,5.94c0,2.8,1.88,4.36,4,5.6l3.87,2.26c2.88,1.68,4.75,3.79,4.75,7.14,0,5.4-4.29,9-10,9A11.06,11.06,0,0,1,257.1,210.05Z" transform="translate(-1.51)"/><path class="cls-2" d="M281.25,206.41c0-8.33,5.69-14.58,11.76-14.58,4.56,0,7.52,3.23,7.52,8.82,0,8.33-5.69,14.57-11.76,14.57C284.21,215.22,281.25,212,281.25,206.41Zm17.36-5.5c0-4.83-2.09-7.4-5.77-7.4-4.78,0-9.67,5.79-9.67,12.64,0,4.82,2.09,7.39,5.77,7.39C293.72,213.54,298.61,207.75,298.61,200.91Z" transform="translate(-1.51)"/><path class="cls-2" d="M310.24,187.32c.93-4.41,3.21-6.58,6.13-6.58a6.93,6.93,0,0,1,3.45,1l-.81,1.52a4.7,4.7,0,0,0-2.64-.81c-2.24,0-3.67,2.2-4.22,4.88l-5.49,27.37h-1.91Zm5.45,23.5a10.62,10.62,0,0,1,.21-2.23l3-14.54H306l.28-1.47,3.06-.19h10l1.54-6.36h1.63l-1.28,6.36h6l-.36,1.66h-6l-3,14.65a10.43,10.43,0,0,0-.18,1.73c0,2.06.75,3.13,3.15,3.13a5.92,5.92,0,0,0,2.67-.8l.55,1.44a7.89,7.89,0,0,1-3.59,1C316.9,215.22,315.69,213.2,315.69,210.82Z" transform="translate(-1.51)"/><path class="cls-2" d="M329.37,192.39h1.9L332.42,207c.16,2.06.3,4.05.45,6h.19c.92-2,1.75-4,2.68-6l6.68-14.56h2.3l1,14.56c.09,2.06.24,4.05.32,6h.19c.92-2,1.73-4,2.74-6l6.8-14.56h1.85l-10.48,22.27h-2.62l-.92-13.88c-.15-2.14-.16-4.52-.31-6.61h-.19c-.92,2.09-1.9,4.47-2.9,6.61l-6.35,13.88H331.3Z" transform="translate(-1.51)"/><path class="cls-2" d="M359.88,207.19c0-8.57,5.93-15.36,12.08-15.36a6.38,6.38,0,0,1,5.75,3.63h.17l.86-3.07h1.59l-4.47,22.27h-1.6l.5-3.54h-.18c-2.29,2.38-5.15,4.1-8.21,4.1C362.46,215.22,359.88,212.41,359.88,207.19Zm15.25,1.53,2.32-11.18c-1.64-2.88-3.43-4-5.51-4-5.28,0-10.13,6.63-10.13,13.32,0,4.5,1.92,6.69,5,6.69C369.66,213.53,372.5,211.81,375.13,208.72Z" transform="translate(-1.51)"/><path class="cls-2" d="M388.6,192.39h1.61l-.69,4.21h.19c1.84-2.63,4.12-4.77,7-4.77a5.55,5.55,0,0,1,2,.38l-.74,1.81a3.71,3.71,0,0,0-1.75-.37c-2.36,0-5.2,2.29-7.21,6.27l-2.93,14.74h-1.91Z" transform="translate(-1.51)"/><path class="cls-2" d="M410,191.83c4.83,0,6.7,3.32,6.7,7.9a13.05,13.05,0,0,1-.63,3.89H400.58c-1.2,7,2.22,10,6.66,10a10,10,0,0,0,5.57-2.15l.84,1.38a11.66,11.66,0,0,1-6.71,2.41c-5.15,0-8.48-3.22-8.48-9.18C398.46,197.59,404.33,191.83,410,191.83Zm4.66,10.26a12.53,12.53,0,0,0,.27-2.65c0-3-1.32-6-5.1-6-3.94,0-7.8,3.56-9,8.61Z" transform="translate(-1.51)"/></g></g></svg>