<?xml version="1.0" encoding="iso-8859-1"?>
<!-- Uploaded to: SVG Repo, www.svgrepo.com, Generator: SVG Repo Mixer Tools -->
<!DOCTYPE svg PUBLIC "-//W3C//DTD SVG 1.1//EN" "http://www.w3.org/Graphics/SVG/1.1/DTD/svg11.dtd">
<svg fill="#FFFFFF" version="1.1" id="Capa_1" xmlns="http://www.w3.org/2000/svg" xmlns:xlink="http://www.w3.org/1999/xlink" 
	 width="800px" height="800px" viewBox="0 0 989.022 989.022"
	 xml:space="preserve">
<g>
	<g>
		<path d="M17.4,55.346C7.1,58.646,0,68.246,0,79.146v421.399c0,14.101,11.5,25,24.9,25c1.7,0,3.4-0.199,5.1-0.5
			c39.4-8.199,98.7-13.399,165.1-13.399c75.4,0,141.7,6.8,180.1,17v-472.5c-29.4-9.5-99-28.7-180.1-28.7
			C116.1,27.446,48.2,45.646,17.4,55.346z"/>
		<path d="M681.2,308.246c25.2-7.8,51.3-11.8,77.399-11.8l0,0l0,0c7.2,0,14.5,0.3,21.7,0.9v-218.2c0-10.9-7.1-20.5-17.399-23.8
			c-30.7-9.7-98.7-27.9-177.7-27.9c-81.101,0-150.7,19.2-180.101,28.7v472.5c23.2-6.2,56.601-11.101,96-14
			c4.5-27.2,13.4-53.8,26.7-78.9C560.2,374.146,614.7,328.846,681.2,308.246z"/>
		<path d="M881.8,786.646c-14.6,7.8-30.1,14.3-46.3,19.399c-16.1,5-32.6,8.4-49.2,10.2l39.601,127.7c4.1,13.2,18.1,20.6,31.3,16.5
			l47.8-14.8c13.2-4.101,20.6-18.101,16.5-31.3L881.8,786.646z"/>
		<path d="M978.6,488.846c-18.199-58.801-58.3-107-112.8-135.7c-16.8-8.9-34.399-15.5-52.3-20c-5.5-1.4-11-2.5-16.6-3.4
			c-5.5-0.9-11-1.7-16.601-2.2c-7.2-0.7-14.5-1.1-21.7-1.1c-22.899,0-46,3.5-68.5,10.4c-58.8,18.2-107,58.3-135.699,112.8
			c-10.601,20.2-18.101,41.399-22.4,63.1c-1.1,5.5-2,11.101-2.7,16.7c-0.7,5.5-1.1,11.1-1.399,16.7
			c-1.2,26.399,2.1,53.2,10.199,79.2c18.2,58.8,58.301,107,112.801,135.699c33.6,17.7,70.199,26.7,107.199,26.7
			c6.4,0,12.801-0.3,19.2-0.8c16.601-1.4,33.101-4.6,49.4-9.6s31.7-11.801,46.2-20c37.8-21.5,68.8-53.4,89.6-92.801
			C991,610.045,996.8,547.646,978.6,488.846z M891.5,627.246c-10.9,20.601-25.8,37.601-43.4,50.7c-26,19.3-57.699,29.7-90,29.7
			c-1.8,0-3.6,0-5.5-0.101c-21.8-0.8-43.8-6.399-64.399-17.199c-54.9-28.9-84.5-87.101-79.9-145.301c0.4-5.5,1.2-11,2.2-16.5
			c1.1-5.5,2.4-11,4.2-16.5c2.7-8.5,6.1-16.899,10.399-25c26.9-51.1,79.301-80.399,133.5-80.399c7.2,0,14.5,0.5,21.7,1.6
			c5.5,0.8,11.101,2,16.601,3.4c5.6,1.5,11.1,3.3,16.6,5.399c5.1,2,10.1,4.301,15,6.9C901.9,462.545,930.2,553.846,891.5,627.246z"
			/>
	</g>
</g>
</svg>