<svg width="84" height="87" viewBox="0 0 84 87" fill="none" xmlns="http://www.w3.org/2000/svg">
<path d="M16.4787 56.817H28.8377C29.1672 54.0832 29.7852 51.3494 30.8975 48.7764H16.4787V56.817ZM36.665 40.3338C41.897 35.2682 48.7769 32.6953 55.6155 32.6953H16.4787V40.7358H36.3355C36.459 40.6152 36.5414 40.4946 36.665 40.3338ZM36.665 77.3204C38.1481 78.7275 39.7548 79.8934 41.4438 80.9387H8.23933C3.7077 80.9387 0 77.3606 0 72.8981V16.6141C0 12.1918 3.7077 8.57356 8.23933 8.57356H25.4595C26.7778 5.19652 29.4144 2.54313 32.9573 1.33704C39.2604 -0.914316 46.3462 2.30191 48.6945 8.57356H65.9147C70.4875 8.57356 74.154 12.1918 74.154 16.6141V40.0122C71.6822 37.6804 68.8808 35.9115 65.9147 34.7054V16.6141H57.6753V24.6547H16.4787V16.6141H8.23933V72.8981H33.0809C34.0696 74.466 35.3055 75.9535 36.665 77.3204ZM32.9573 12.5938C32.9573 14.805 34.8112 16.6141 37.077 16.6141C39.3428 16.6141 41.1967 14.805 41.1967 12.5938C41.1967 10.3827 39.3428 8.57356 37.077 8.57356C34.8112 8.57356 32.9573 10.3827 32.9573 12.5938ZM84 80.9387L78.2737 86.5269L65.4203 74.1846C62.5777 75.9133 59.1996 76.9184 55.6155 76.9184C45.3163 76.9184 37.077 68.8778 37.077 58.8271C37.077 48.7764 45.3163 40.7358 55.6155 40.7358C65.9147 40.7358 74.154 48.7764 74.154 58.8271C74.154 62.365 73.1241 65.7018 71.3114 68.4758L84 80.9387ZM65.9147 58.8271C65.9147 53.2791 61.3006 48.7764 55.6155 48.7764C49.9304 48.7764 45.3163 53.2791 45.3163 58.8271C45.3163 64.3751 49.9304 68.8778 55.6155 68.8778C61.3006 68.8778 65.9147 64.3751 65.9147 58.8271Z" fill="white"/>
</svg>
