<svg width="88" height="87" viewBox="0 0 88 87" fill="none" xmlns="http://www.w3.org/2000/svg">
<path d="M86.8249 70.9254L50.346 35.4043C54.0823 26.2602 52.2342 15.475 44.5608 8.05032C35.3205 -0.937415 20.9379 -1.75803 10.6933 5.5103L26.1205 20.555L20.4156 25.9867L5.02858 11.0983C-2.44396 21.0239 -1.60029 35.0526 7.63996 44.0012C15.1125 51.2696 25.9999 53.1844 35.3205 49.7846L71.92 85.3839C73.4868 86.9079 76.0178 86.9079 77.5846 85.3839L86.8249 76.3961C88.3917 74.8331 88.3917 72.4494 86.8249 70.9254ZM74.7724 77.1386L36.7668 40.1717C34.3162 41.9302 31.5843 42.9852 28.7318 43.376C23.268 44.1575 17.523 42.5554 13.3448 38.4914C9.52818 34.8181 7.76048 29.8944 8.04171 25.0489L20.4558 37.1237L37.49 20.555L25.0759 8.40201C30.138 8.20662 35.0795 9.92601 38.8961 13.5993C43.235 17.8196 44.8822 23.6421 43.8778 29.0738C43.3957 31.8483 42.1905 34.4274 40.3424 36.7329L78.348 73.6608L74.7724 77.1386Z" fill="white"/>
</svg>
