<svg width="84" height="86" viewBox="0 0 84 86" fill="none" xmlns="http://www.w3.org/2000/svg">
<path d="M16.4787 56.2955H28.8377C29.1672 53.5617 29.7852 50.8279 30.8975 48.2549H16.4787V56.2955ZM36.665 39.8123C41.897 34.7468 48.7769 32.1738 55.6155 32.1738H16.4787V40.2144H36.3355C36.459 40.0937 36.5414 39.9731 36.665 39.8123ZM36.665 76.799C38.1481 78.2061 39.7548 79.3719 41.4438 80.4172H8.23933C3.7077 80.4172 0 76.8392 0 72.3766V16.0926C0 11.6703 3.7077 8.05207 8.23933 8.05207H25.4595C26.7778 4.67503 29.4144 2.02165 32.9573 0.81556C39.2604 -1.4358 46.3462 1.78043 48.6945 8.05207H65.9147C70.4875 8.05207 74.154 11.6703 74.154 16.0926V39.4907C71.6822 37.1589 68.8808 35.39 65.9147 34.1839V16.0926H57.6753V24.1332H16.4787V16.0926H8.23933V72.3766H33.0809C34.0696 73.9445 35.3055 75.4321 36.665 76.799ZM32.9573 12.0724C32.9573 14.2835 34.8112 16.0926 37.077 16.0926C39.3428 16.0926 41.1967 14.2835 41.1967 12.0724C41.1967 9.8612 39.3428 8.05207 37.077 8.05207C34.8112 8.05207 32.9573 9.8612 32.9573 12.0724ZM84 80.4172L78.2737 86.0054L65.4203 73.6631C62.5777 75.3919 59.1996 76.3969 55.6155 76.3969C45.3163 76.3969 37.077 68.3563 37.077 58.3056C37.077 48.2549 45.3163 40.2144 55.6155 40.2144C65.9147 40.2144 74.154 48.2549 74.154 58.3056C74.154 61.8435 73.1241 65.1803 71.3114 67.9543L84 80.4172ZM65.9147 58.3056C65.9147 52.7576 61.3006 48.2549 55.6155 48.2549C49.9304 48.2549 45.3163 52.7576 45.3163 58.3056C45.3163 63.8536 49.9304 68.3564 55.6155 68.3564C61.3006 68.3564 65.9147 63.8536 65.9147 58.3056Z" fill="white"/>
</svg>
