<svg width="92" height="86" viewBox="0 0 92 86" fill="none" xmlns="http://www.w3.org/2000/svg">
<path d="M69.598 40.7908L75.394 35.0938C77.418 33.1043 79.994 32.0192 82.8 31.7479V27.2264L55.2 0.0976562H9.2C4.094 0.0976562 0 4.12176 0 9.14058V72.441C0 77.4146 4.094 81.4839 9.2 81.4839H36.8V73.0288L37.398 72.441H9.2V9.14058H41.4V40.7908H69.598ZM50.6 6.87985L75.9 31.7479H50.6V6.87985ZM74.198 49.0651L83.582 58.2888L55.384 86.0054H46V76.7816L74.198 49.0651ZM91.31 50.6928L86.802 55.1238L77.418 45.9L81.926 41.469C82.8 40.5647 84.318 40.5647 85.238 41.469L91.31 47.4373C92.23 48.3416 92.23 49.8337 91.31 50.6928Z" fill="white"/>
</svg>
