<svg width="97" height="86" viewBox="0 0 97 86" fill="none" xmlns="http://www.w3.org/2000/svg">
<path d="M8.81818 0.0976562C6.47945 0.0976563 4.23652 1.00275 2.58279 2.61384C0.929056 4.22492 0 6.41002 0 8.68843V60.2331C0 65.001 3.96818 68.8239 8.81818 68.8239H39.6818V77.4146H30.8636V86.0054H66.1364V77.4146H57.3182V68.8239H88.1818C90.5205 68.8239 92.7635 67.9188 94.4172 66.3077C96.0709 64.6966 97 62.5115 97 60.2331V8.68843C97 6.41002 96.0709 4.22492 94.4172 2.61384C92.7635 1.00275 90.5205 0.0976563 88.1818 0.0976562M8.81818 8.68843H88.1818V60.2331H8.81818M61.7273 12.9838L46.2955 28.0177L61.7273 43.0515L67.9 37.038L58.6409 28.0177L67.9 18.9974M35.2727 25.87L29.1 31.8835L38.3591 40.9038L29.1 49.9241L35.2727 55.9377L50.7045 40.9038" fill="white"/>
</svg>
